<?xml version="1.0" encoding="iso-8859-1"?>
<!-- Generator: Adobe Illustrator 19.0.0, SVG Export Plug-In . SVG Version: 6.00 Build 0)  -->
<svg version="1.1" id="Capa_1" fill="#ffffff" xmlns="http://www.w3.org/2000/svg" xmlns:xlink="http://www.w3.org/1999/xlink" x="0px" y="0px"
	 viewBox="0 0 496 496" style="enable-background:new 0 0 496 496;" xml:space="preserve">
<g>
	<g>
		<g>
			<path d="M0,248c0,30.872,25.128,56,56,56h8V192h-8C25.128,192,0,217.128,0,248z M48,287.192C29.768,283.48,16,267.32,16,248
				s13.768-35.48,32-39.192V287.192z"/>
			<path d="M40,176h16c0-88.224,71.776-160,160-160h8v84.272C189.768,128.496,146.68,144,102.24,144H80v152
				c0,51.888,38.248,94.904,88,102.64V496h72v-80h-16v64h-40v-80h56V0h-24C118.952,0,40,78.952,40,176z M224,334.872
				c-13.768-3.576-24-15.992-24-30.864h-16c0,23.736,17.336,43.448,40,47.28V384h-40c-48.52,0-88-39.48-88-88V160h6.24
				c43.84,0,86.48-13.92,121.76-39.504V334.872z"/>
			<path d="M160,256c13.232,0,24-10.768,24-24s-10.768-24-24-24s-24,10.768-24,24S146.768,256,160,256z M160,224
				c4.416,0,8,3.584,8,8s-3.584,8-8,8s-8-3.584-8-8S155.584,224,160,224z"/>
			<path d="M440,192h-8v112h8c30.872,0,56-25.128,56-56S470.872,192,440,192z M448,287.192V208.8c18.232,3.72,32,19.872,32,39.192
				S466.232,283.48,448,287.192z"/>
			<path d="M256,160h144v136c0,48.52-39.48,88-88,88h-56v16h56c57.344,0,104-46.656,104-104V144H256V160z"/>
			<path d="M312,0h-56v16h16v32h-16v16h32V16h16v64h-48v16h64V16.408c44.784,4.056,80,41.768,80,87.592v24h16v-24
				C416,46.656,369.344,0,312,0z"/>
			<path d="M432,80h16V46.528c9.288-3.312,16-12.112,16-22.528c0-13.232-10.768-24-24-24s-24,10.768-24,24
				c0,10.416,6.712,19.216,16,22.528V80z M440,16c4.416,0,8,3.584,8,8s-3.584,8-8,8c-4.416,0-8-3.584-8-8S435.584,16,440,16z"/>
			<path d="M352,320c0-17.648-14.352-32-32-32h-64v16h16v32h-16v16h64C337.648,352,352,337.648,352,320z M320,304
				c8.824,0,16,7.176,16,16c0,8.824-7.176,16-16,16V304z M304,336h-16v-32h16V336z"/>
			<path d="M360,224c0-22.056-17.944-40-40-40c-22.056,0-40,17.944-40,40c0,22.056,17.944,40,40,40C342.056,264,360,246.056,360,224
				z M341.592,213.72c1.504,3.128,2.408,6.584,2.408,10.28s-0.904,7.152-2.408,10.28L331.312,224L341.592,213.72z M320,200
				c3.696,0,7.152,0.904,10.28,2.408L320,212.688l-10.28-10.28C312.848,200.904,316.304,200,320,200z M298.408,234.28
				C296.904,231.152,296,227.696,296,224s0.904-7.152,2.408-10.28l10.28,10.28L298.408,234.28z M320,235.312l10.28,10.28
				C327.152,247.096,323.696,248,320,248c-3.696,0-7.152-0.904-10.28-2.408L320,235.312z"/>
			<rect x="264" y="112" width="16" height="16"/>
			<rect x="304" y="112" width="16" height="16"/>
			<rect x="344" y="112" width="16" height="16"/>
			<polygon points="320,416 304,416 304,448 256,448 256,464 360,464 360,480 256,480 256,496 376,496 376,448 320,448 			"/>
			<rect x="432" y="96" width="16" height="80"/>
		</g>
	</g>
</g>
<g>
</g>
<g>
</g>
<g>
</g>
<g>
</g>
<g>
</g>
<g>
</g>
<g>
</g>
<g>
</g>
<g>
</g>
<g>
</g>
<g>
</g>
<g>
</g>
<g>
</g>
<g>
</g>
<g>
</g>
</svg>
