<?xml version="1.0" encoding="iso-8859-1"?>
<!-- Generator: Adobe Illustrator 19.0.0, SVG Export Plug-In . SVG Version: 6.00 Build 0)  -->
<svg version="1.1" id="Capa_1" fill="#ffffff" xmlns="http://www.w3.org/2000/svg" xmlns:xlink="http://www.w3.org/1999/xlink" x="0px" y="0px"
	 viewBox="0 0 496 496" style="enable-background:new 0 0 496 496;" xml:space="preserve">
<g>
	<g>
		<g>
			<path d="M430.232,60.096C397.648,21.904,348.44,0,295.24,0h-51.744c-27.8,0-53.48,5.592-76.328,16.632
				c-60.4,29.16-97.92,88.64-97.92,155.248c0,20.504-9.184,39.624-25.2,52.432l-17.424,13.936l3.888,6.072
				c26.784,41.776,46.648,87.312,59.04,135.368l2.496,9.672c4.304,16.672,15.008,30.2,29.36,37.12
				c15.904,7.688,34.616,7.28,50.168-1.144l117.6-66.368l-7.864-13.936L163.84,411.328c-10.912,5.92-24.176,6.192-35.48,0.744
				c-10.112-4.872-17.696-14.608-20.824-26.712l-2.496-9.672c-0.664-2.576-1.432-5.12-2.136-7.688h22.344v-16h-27.04
				c-12.112-38.712-28.96-75.688-50.384-110.216l6.208-4.968c19.84-15.872,31.216-39.536,31.216-64.936
				c0-60.416,34.056-114.376,88.872-140.84C194.784,21.064,218.128,16,243.496,16h51.744c2.016,0,4.008,0.088,6.008,0.152V40h16
				V17.44c39.864,5.056,75.8,23.728,100.808,53.04c28.704,33.648,40.496,77.344,33.208,123.048
				c-3.184,20-10.088,38.776-20.504,55.784c-42.856,69.928-65.512,146.224-65.512,220.632V480h-48V328h-16v152h-80v-64h-16v80h176
				v-26.056c0-71.456,21.84-144.856,63.152-212.28c11.52-18.816,19.152-39.536,22.664-61.624
				C475.104,145.64,462.024,97.36,430.232,60.096z"/>
			<rect x="109.248" y="200" width="48" height="16"/>
			<path d="M357.248,168c0-26.472-21.528-48-48-48s-48,21.528-48,48s21.528,48,48,48S357.248,194.472,357.248,168z M309.248,200
				c-17.648,0-32-14.352-32-32s14.352-32,32-32s32,14.352,32,32S326.896,200,309.248,200z"/>
			<path d="M271.856,256.336c0.456,0.184,0.912,0.376,1.368,0.56L279,280h60.496l5.776-23.104c0.464-0.184,0.912-0.376,1.368-0.56
				l20.424,12.24l42.768-42.768l-12.248-20.424c0.192-0.464,0.384-0.912,0.568-1.368l23.096-5.768v-60.496l-23.096-5.776
				c-0.728-1.792-1.52-3.576-2.36-5.344l-14.44,6.888c1.224,2.56,2.312,5.168,3.256,7.856l1.432,4.064l19.208,4.808v35.504
				l-19.208,4.808l-1.432,4.064c-0.944,2.688-2.032,5.296-3.256,7.84l-1.856,3.872l10.184,16.992l-25.104,25.112l-16.984-10.184
				l-3.88,1.856c-2.544,1.216-5.168,2.304-7.856,3.256L331.8,244.8L327,264h-35.504l-4.8-19.2l-4.048-1.432
				c-2.688-0.952-5.312-2.04-7.856-3.256l-3.88-1.856l-16.984,10.184l-29.52-29.52l-11.312,11.312l38.352,38.352L271.856,256.336z"
				/>
			<path d="M197.248,137.752v60.496l23.096,5.776c0.728,1.8,1.52,3.584,2.368,5.344l14.432-6.904
				c-1.216-2.544-2.312-5.16-3.256-7.84l-1.432-4.064l-19.208-4.808v-35.504l19.208-4.808l1.432-4.064
				c0.944-2.688,2.032-5.296,3.256-7.856l1.848-3.872l-10.184-16.976l25.104-25.112l16.984,10.184l3.88-1.856
				c2.544-1.216,5.168-2.304,7.856-3.256l4.048-1.432l4.8-19.2h35.504l4.8,19.2l4.048,1.432c2.688,0.952,5.312,2.04,7.856,3.256
				l3.88,1.856l16.984-10.184l29.52,29.52l11.312-11.312l-38.352-38.352l-20.424,12.24c-0.456-0.184-0.912-0.376-1.368-0.56
				L339.496,56H279l-5.776,23.104c-0.464,0.184-0.912,0.376-1.368,0.56l-20.424-12.24l-42.768,42.768l12.248,20.424
				c-0.192,0.456-0.384,0.912-0.568,1.368L197.248,137.752z"/>
			<rect x="301.248" y="88" width="16" height="16"/>
			<rect x="250.339" y="109.098" transform="matrix(0.7072 0.707 -0.707 0.7072 158.4281 -148.3616)" width="16" height="16"/>
			<rect x="229.248" y="160" width="16" height="16"/>
			<rect x="250.334" y="210.867" transform="matrix(-0.7072 0.707 -0.707 -0.7072 595.7693 191.0071)" width="16" height="16"/>
			<rect x="301.248" y="232" width="16" height="16"/>
			<rect x="352.132" y="210.941" transform="matrix(0.7072 0.707 -0.707 0.7072 260.2371 -190.5117)" width="16" height="16"/>
			<rect x="373.248" y="160" width="16" height="16"/>
			<rect x="352.131" y="109.13" transform="matrix(0.707 0.7072 -0.7072 0.707 188.3508 -220.3688)" width="16" height="16"/>
			<rect x="301.248" y="296" width="16" height="16"/>
		</g>
	</g>
</g>
<g>
</g>
<g>
</g>
<g>
</g>
<g>
</g>
<g>
</g>
<g>
</g>
<g>
</g>
<g>
</g>
<g>
</g>
<g>
</g>
<g>
</g>
<g>
</g>
<g>
</g>
<g>
</g>
<g>
</g>
</svg>
