<?xml version="1.0" encoding="iso-8859-1"?>
<!-- Generator: Adobe Illustrator 19.0.0, SVG Export Plug-In . SVG Version: 6.00 Build 0)  -->
<svg version="1.1" id="Capa_1" fill="#ffffff" xmlns="http://www.w3.org/2000/svg" xmlns:xlink="http://www.w3.org/1999/xlink" x="0px" y="0px"
	 viewBox="0 0 496 496" style="enable-background:new 0 0 496 496;" xml:space="preserve">
<g>
	<g>
		<g>
			<path d="M144,352h-32v16h32v16h-32v16h32v16h-32v16h32v16h-32v16h30.528c-3.312,9.288-12.112,16-22.528,16H96V352H80v128H56
				c-10.416,0-19.216-6.712-22.528-16H64v-16H32v-16h32v-16H32v-16h32v-16H32v-16h32v-16H32h-8h-8v104c0,22.056,17.944,40,40,40h64
				c22.056,0,40-17.944,40-40V352h-8H144z"/>
			<path d="M472,288H368v-24c0-22.056-17.944-40-40-40h-24v-16h-16v16h-80v-16h-16v16h-24c-22.056,0-40,17.944-40,40v24H24
				c-13.232,0-24,10.768-24,24v24h176v-16h144v16h176v-24C496,298.768,485.232,288,472,288z M160,320H16v-8c0-4.408,3.592-8,8-8h128
				c4.408,0,8,3.592,8,8V320z M321.472,304H174.528c-3.312-9.288-12.112-16-22.528-16h-8v-24c0-13.232,10.768-24,24-24h160
				c13.232,0,24,10.768,24,24v24h-8C333.584,288,324.784,294.712,321.472,304z M480,320H336v-8c0-4.408,3.592-8,8-8h128
				c4.408,0,8,3.592,8,8V320z"/>
			<path d="M464,352h-32v16h32v16h-32v16h32v16h-32v16h32v16h-32v16h30.528c-3.312,9.288-12.112,16-22.528,16h-24V352h-16v128h-24
				c-10.416,0-19.216-6.712-22.528-16H384v-16h-32v-16h32v-16h-32v-16h32v-16h-32v-16h32v-16h-32h-8h-8v104
				c0,22.056,17.944,40,40,40h64c22.056,0,40-17.944,40-40V352h-8H464z"/>
			<path d="M320,32H176v128h144V32z M304,144H192V48h112V144z"/>
			<rect x="272" y="64" width="16" height="64"/>
			<path d="M224,112h16v16h16V64h-48v64h16V112z M224,80h16v16h-16V80z"/>
			<path d="M471.648,219.48c0.128-1.152,0.352-2.288,0.352-3.48c0-8.04-3.08-15.312-8-20.944V120c0-39.696-32.304-72-72-72h-8V32
				h-32V0H144v32h-32v16h-8c-39.696,0-72,32.304-72,72v75.056c-4.92,5.632-8,12.904-8,20.944c0,1.192,0.224,2.328,0.352,3.48
				L0,235.72V272h16v-27.72l14.232-9.488C36.056,242.76,45.4,248,56,248s19.944-5.24,25.768-13.208L96,244.28V272h16v-36.28
				l-24.352-16.232C87.776,218.328,88,217.192,88,216c0-8.04-3.08-15.312-8-20.944V120c0-13.232,10.768-24,24-24h8v16h32v80h208v-80
				h32V96h8c13.232,0,24,10.768,24,24v75.056c-4.92,5.624-8,12.896-8,20.944c0,1.192,0.224,2.328,0.352,3.48L384,235.72V272h16
				v-27.72l14.232-9.488C420.056,242.76,429.4,248,440,248c10.6,0,19.944-5.24,25.768-13.208L480,244.28V272h16v-36.28
				L471.648,219.48z M56,232c-8.824,0-16-7.176-16-16c0-8.824,7.176-16,16-16c8.824,0,16,7.176,16,16C72,224.824,64.824,232,56,232z
				 M112,80h-8c-22.056,0-40,17.944-40,40v65.136c-2.576-0.672-5.224-1.136-8-1.136s-5.424,0.464-8,1.136V120
				c0-30.88,25.12-56,56-56h8V80z M144,96h-16V48h16V96z M336,176H160V16h176V176z M368,96h-16V48h16V96z M392,80h-8V64h8
				c30.88,0,56,25.12,56,56v65.136c-2.576-0.672-5.224-1.136-8-1.136s-5.424,0.464-8,1.136V120C432,97.944,414.056,80,392,80z
				 M440,232c-8.824,0-16-7.176-16-16c0-8.824,7.176-16,16-16c8.824,0,16,7.176,16,16C456,224.824,448.824,232,440,232z"/>
		</g>
	</g>
</g>
<g>
</g>
<g>
</g>
<g>
</g>
<g>
</g>
<g>
</g>
<g>
</g>
<g>
</g>
<g>
</g>
<g>
</g>
<g>
</g>
<g>
</g>
<g>
</g>
<g>
</g>
<g>
</g>
<g>
</g>
</svg>
